<svg width="24" height="24" viewBox="0 0 24 24" fill="none" xmlns="http://www.w3.org/2000/svg">
<mask id="mask0_12_7493" style="mask-type:alpha" maskUnits="userSpaceOnUse" x="2" y="1" width="24" height="24">
<path fill-rule="evenodd" clip-rule="evenodd" d="M8 15.005C8 15.555 8.45 16.005 9 16.005H21C21.55 16.005 22 16.455 22 17.005C22 17.555 21.55 18.005 21 18.005H18V20.005H18.8C19.24 20.005 19.47 20.545 19.15 20.855L17.36 22.645C17.16 22.845 16.85 22.845 16.65 22.645L14.86 20.855C14.54 20.545 14.76 20.005 15.21 20.005H16V18.005H8C6.9 18.005 6 17.105 6 16.005V8.00496H3C2.45 8.00496 2 7.55496 2 7.00496C2 6.45496 2.45 6.00496 3 6.00496H6V4.00496H5.21C4.76 4.00496 4.54 3.46496 4.85 3.15496L6.64 1.35496C6.84 1.15496 7.15 1.15496 7.35 1.35496L9.14 3.15496C9.46 3.46496 9.24 4.00496 8.79 4.00496H8V15.005ZM18 14.005H16V9.00496C16 8.45496 15.55 8.00496 15 8.00496H10V6.00496H16C17.1 6.00496 18 6.90496 18 8.00496V14.005Z" fill="#1867FF"/>
</mask>
<g mask="url(#mask0_12_7493)">
<rect width="24" height="24" fill="#1867FF"/>
</g>
</svg>
