<svg width="24" height="24" viewBox="0 0 24 24" fill="none" xmlns="http://www.w3.org/2000/svg">
<mask id="mask0_3475_3624" style="mask-type:alpha" maskUnits="userSpaceOnUse" x="2" y="2" width="24" height="24">
<path fill-rule="evenodd" clip-rule="evenodd" d="M17.999 4H18.999C20.099 4 20.999 4.9 20.999 6V20C20.999 21.1 20.099 22 18.999 22H4.99902C3.88902 22 2.99902 21.1 2.99902 20V6C2.99902 4.9 3.88902 4 4.99902 4H5.99902V3C5.99902 2.45 6.44902 2 6.99902 2C7.54902 2 7.99902 2.45 7.99902 3V4H15.999V3C15.999 2.45 16.449 2 16.999 2C17.549 2 17.999 2.45 17.999 3V4ZM7.99902 11H15.999C16.549 11 16.999 11.45 16.999 12C16.999 12.55 16.549 13 15.999 13H7.99902C7.44902 13 6.99902 12.55 6.99902 12C6.99902 11.45 7.44902 11 7.99902 11ZM17.999 20H5.99902C5.44902 20 4.99902 19.55 4.99902 19V9H18.999V19C18.999 19.55 18.549 20 17.999 20ZM7.99902 15H12.999C13.549 15 13.999 15.45 13.999 16C13.999 16.55 13.549 17 12.999 17H7.99902C7.44902 17 6.99902 16.55 6.99902 16C6.99902 15.45 7.44902 15 7.99902 15Z" fill="#858C94"/>
</mask>
<g mask="url(#mask0_3475_3624)">
<rect x="-0.000976562" width="24" height="24" fill="#858C94"/>
</g>
</svg>
