<svg width="80" height="80" viewBox="0 0 80 80" fill="none" xmlns="http://www.w3.org/2000/svg">
<path d="M20 10H14C11.7909 10 10 11.7909 10 14V20" stroke="#6D5FFD" stroke-width="5" stroke-linecap="round" stroke-linejoin="round"/>
<path d="M60 10H66C68.2091 10 70 11.7909 70 14V20" stroke="#6D5FFD" stroke-width="5" stroke-linecap="round" stroke-linejoin="round"/>
<path d="M20 70H14C11.7909 70 10 68.2091 10 66V60" stroke="#6D5FFD" stroke-width="5" stroke-linecap="round" stroke-linejoin="round"/>
<path d="M23.3334 60V56.6667C23.3334 52.2464 25.0893 48.0072 28.2149 44.8816C31.3405 41.7559 35.5798 40 40 40C44.4203 40 48.6595 41.7559 51.7852 44.8816C54.9108 48.0072 56.6667 52.2464 56.6667 56.6667V60" stroke="#6D5FFD" stroke-width="5" stroke-linecap="round" stroke-linejoin="round"/>
<path d="M40 40C42.6522 40 45.1957 38.9464 47.0711 37.0711C48.9464 35.1957 50 32.6522 50 30C50 27.3478 48.9464 24.8043 47.0711 22.9289C45.1957 21.0536 42.6522 20 40 20C37.3478 20 34.8043 21.0536 32.9289 22.9289C31.0536 24.8043 30 27.3478 30 30C30 32.6522 31.0536 35.1957 32.9289 37.0711C34.8043 38.9464 37.3478 40 40 40V40Z" stroke="#6D5FFD" stroke-width="5" stroke-linecap="round" stroke-linejoin="round"/>
<path d="M60 70H66C68.2091 70 70 68.2091 70 66V60" stroke="#6D5FFD" stroke-width="5" stroke-linecap="round" stroke-linejoin="round"/>
</svg>
