<svg width="48" height="48" viewBox="0 0 48 48" fill="none" xmlns="http://www.w3.org/2000/svg">
<mask id="mask0_2279_59829" style="mask-type:alpha" maskUnits="userSpaceOnUse" x="4" y="4" width="48" height="48">
<path fill-rule="evenodd" clip-rule="evenodd" d="M4 24C4 12.96 12.96 4 24 4C35.04 4 44 12.96 44 24C44 35.04 35.04 44 24 44C12.96 44 4 35.04 4 24ZM26.82 37.34V36.18C30.3 35.52 33.04 33.52 33.08 29.86C33.08 24.82 28.76 23.08 24.72 22.04C20.68 21 19.38 19.9 19.38 18.22C19.38 16.3 21.18 14.94 24.18 14.94C26.7 14.94 27.96 15.92 28.42 17.44C28.62 18.16 29.22 18.68 29.96 18.68H30.48C31.66 18.68 32.5 17.52 32.1 16.42C31.34 14.3 29.6 12.58 26.84 11.9V10.66C26.84 9.2 25.64 8 24.18 8H24.16C22.7 8 21.5 9.2 21.5 10.66V11.86C18.06 12.6 15.28 14.84 15.28 18.28C15.28 22.38 18.68 24.42 23.64 25.62C28.1 26.68 28.98 28.24 28.98 29.9C28.98 31.12 28.1 33.08 24.18 33.08C21.26 33.08 19.74 32.04 19.16 30.54C18.88 29.84 18.28 29.34 17.54 29.34H17.06C15.86 29.34 15 30.56 15.46 31.66C16.46 34.12 18.82 35.58 21.48 36.14V37.34C21.48 38.8 22.68 40 24.14 40H24.16C25.62 40 26.82 38.8 26.82 37.34Z" fill="#6D5FFD"/>
</mask>
<g mask="url(#mask0_2279_59829)">
<rect width="48" height="48" fill="#6D5FFD"/>
</g>
</svg>
