<svg width="64" height="48" viewBox="0 0 64 48" fill="none" xmlns="http://www.w3.org/2000/svg">
<rect width="64" height="39.7341" rx="8" fill="#6D5FFD"/>
<rect x="23" y="38.2441" width="12.4169" height="12.4169" rx="2" transform="rotate(-45 23 38.2441)" fill="#6D5FFD"/>
<path d="M19.9028 24V21.704H15.9688V20.612L19.4968 15.096L21.4148 15.096V20.458H22.5348V21.704H21.4148V24H19.9028ZM17.5648 20.458H19.9028V18.442C19.9028 18.1807 19.9075 17.8727 19.9168 17.518C19.9355 17.1633 19.9541 16.8553 19.9728 16.594H19.9168C19.8048 16.8273 19.6881 17.056 19.5668 17.28C19.4455 17.504 19.3195 17.7373 19.1888 17.98L17.5648 20.458ZM26.2545 24.168C25.5265 24.168 24.9199 24.0467 24.4345 23.804C23.9492 23.5613 23.5479 23.2627 23.2305 22.908L24.0005 21.872C24.2712 22.1427 24.5792 22.376 24.9245 22.572C25.2699 22.7587 25.6665 22.852 26.1145 22.852C26.5999 22.852 26.9919 22.7353 27.2905 22.502C27.5985 22.2593 27.7525 21.928 27.7525 21.508C27.7525 21.2747 27.7105 21.0647 27.6265 20.878C27.5425 20.6913 27.3979 20.5327 27.1925 20.402C26.9965 20.2713 26.7305 20.1733 26.3945 20.108C26.0585 20.0333 25.6385 19.996 25.1345 19.996V18.82C25.5732 18.82 25.9372 18.7873 26.2265 18.722C26.5252 18.6473 26.7632 18.5493 26.9405 18.428C27.1272 18.2973 27.2579 18.1433 27.3325 17.966C27.4165 17.7887 27.4585 17.5973 27.4585 17.392C27.4585 17.0187 27.3419 16.7293 27.1085 16.524C26.8752 16.3093 26.5532 16.202 26.1425 16.202C25.7879 16.202 25.4659 16.2813 25.1765 16.44C24.8965 16.5893 24.6212 16.79 24.3505 17.042L23.5245 16.048C23.9072 15.712 24.3132 15.4413 24.7425 15.236C25.1812 15.0307 25.6665 14.928 26.1985 14.928C26.6279 14.928 27.0199 14.9793 27.3745 15.082C27.7292 15.1847 28.0325 15.3387 28.2845 15.544C28.5365 15.74 28.7325 15.9873 28.8725 16.286C29.0125 16.5753 29.0825 16.9067 29.0825 17.28C29.0825 17.784 28.9425 18.204 28.6625 18.54C28.3919 18.876 28.0139 19.1373 27.5285 19.324V19.38C28.0605 19.52 28.4992 19.7767 28.8445 20.15C29.1992 20.5233 29.3765 21.004 29.3765 21.592C29.3765 22.0027 29.2925 22.3667 29.1245 22.684C28.9659 23.0013 28.7419 23.272 28.4525 23.496C28.1725 23.7107 27.8412 23.8787 27.4585 24C27.0852 24.112 26.6839 24.168 26.2545 24.168ZM32.0043 24.168C31.7056 24.168 31.4536 24.0653 31.2483 23.86C31.0523 23.6547 30.9543 23.3933 30.9543 23.076C30.9543 22.7587 31.0523 22.4973 31.2483 22.292C31.4536 22.0867 31.7056 21.984 32.0043 21.984C32.3029 21.984 32.5503 22.0867 32.7463 22.292C32.9423 22.4973 33.0403 22.7587 33.0403 23.076C33.0403 23.3933 32.9423 23.6547 32.7463 23.86C32.5503 24.0653 32.3029 24.168 32.0043 24.168ZM38.1137 24V21.704H34.1797V20.612L37.7077 15.096H39.6257V20.458H40.7457V21.704H39.6257V24H38.1137ZM35.7757 20.458H38.1137V18.442C38.1137 18.1807 38.1184 17.8727 38.1277 17.518C38.1464 17.1633 38.1651 16.8553 38.1837 16.594H38.1277C38.0157 16.8273 37.8991 17.056 37.7777 17.28C37.6564 17.504 37.5304 17.7373 37.3997 17.98L35.7757 20.458ZM43.4575 24C43.4948 23.2067 43.5648 22.4833 43.6675 21.83C43.7701 21.1673 43.9148 20.5373 44.1015 19.94C44.2975 19.3427 44.5448 18.764 44.8435 18.204C45.1421 17.6347 45.5061 17.0513 45.9355 16.454H41.7215V15.096H47.6995V16.076C47.1768 16.72 46.7521 17.336 46.4255 17.924C46.1081 18.5027 45.8561 19.1 45.6695 19.716C45.4828 20.3227 45.3475 20.9713 45.2635 21.662C45.1888 22.3527 45.1328 23.132 45.0955 24H43.4575Z" fill="white"/>
</svg>
