<svg width="140" height="85" viewBox="0 0 140 85" fill="none" xmlns="http://www.w3.org/2000/svg">
<path fill-rule="evenodd" clip-rule="evenodd" d="M-2 1C-2 1 9.16068 32.337 12.0189 32.337C14.8771 32.337 20.7297 23.1992 25.2212 20.1532C29.7127 17.1073 37.4707 53.849 43.051 53.849C48.6314 53.849 55.7089 17.8687 61.017 17.8687C66.3251 17.8687 70.1361 34.6215 73.6749 34.6215C77.2136 34.6215 83.8828 23.334 94.0907 37.1707C100.215 45.4727 95.3157 67.5558 111.376 29.6718C125.803 -17.1597 142 15.2779 142 15.2779V88H-2V1Z" fill="url(#paint0_linear_2_1942)"/>
<path d="M-2 1H-3C-3 0.513399 -2.64973 0.0974352 -2.17024 0.0145971C-1.69075 -0.068241 -1.22122 0.206097 -1.05797 0.664493L-2 1ZM61.017 17.8687V16.8687V17.8687ZM73.6749 34.6215V33.6215V34.6215ZM94.0907 37.1707L94.8954 36.577L94.0907 37.1707ZM111.376 29.6718L112.332 29.9662C112.322 29.9988 112.31 30.0308 112.297 30.0621L111.376 29.6718ZM142 15.2779L142.895 14.8312C142.964 14.9699 143 15.1228 143 15.2779H142ZM142 88H143C143 88.5523 142.552 89 142 89V88ZM-2 88V89C-2.55229 89 -3 88.5523 -3 88H-2ZM-2 1C-1.05797 0.664493 -1.05794 0.664575 -1.05786 0.664777C-1.05779 0.665003 -1.05768 0.665323 -1.05751 0.665774C-1.05719 0.666677 -1.0567 0.668054 -1.05605 0.669901C-1.05472 0.673596 -1.05273 0.679172 -1.05008 0.686601C-1.04478 0.701458 -1.03683 0.723724 -1.02631 0.753159C-1.00525 0.812029 -0.973892 0.899575 -0.932831 1.01388C-0.850723 1.24251 -0.729782 1.57817 -0.574783 2.00558C-0.264755 2.86042 0.181488 4.0821 0.725952 5.54829C1.81519 8.48141 3.29625 12.3896 4.86552 16.2957C6.43678 20.2067 8.08852 24.0955 9.51956 26.9984C10.2374 28.4546 10.8842 29.6306 11.4246 30.4308C11.6971 30.8342 11.918 31.1051 12.0835 31.2642C12.294 31.4665 12.2563 31.337 12.0189 31.337V33.337C11.4243 33.337 10.9644 32.9627 10.6974 32.706C10.3854 32.406 10.0735 32.0037 9.7672 31.5502C9.15019 30.6366 8.45612 29.3644 7.72569 27.8828C6.26024 24.91 4.58589 20.9646 3.0097 17.0413C1.43153 13.1131 -0.0562134 9.1871 -1.14894 6.24453C-1.69545 4.77287 -2.14346 3.54634 -2.45496 2.68745C-2.6107 2.25799 -2.73233 1.92039 -2.81509 1.68997C-2.85648 1.57476 -2.88815 1.48635 -2.9095 1.42663C-2.92018 1.39677 -2.92828 1.37409 -2.93373 1.35882C-2.93645 1.35119 -2.93851 1.34541 -2.9399 1.34152C-2.9406 1.33957 -2.94112 1.33809 -2.94148 1.33709C-2.94167 1.33659 -2.9418 1.33619 -2.94189 1.33594C-2.94199 1.33566 -2.94205 1.33551 -2 1ZM12.0189 31.337C12.1241 31.337 12.3482 31.2889 12.722 31.0728C13.0834 30.8637 13.5078 30.5428 13.9929 30.1131C14.9643 29.2525 16.0685 28.0564 17.2619 26.721C18.4401 25.4027 19.7019 23.9525 20.9416 22.6519C22.1777 21.3552 23.4454 20.1492 24.6599 19.3256L25.7824 20.9808C24.7512 21.6802 23.603 22.7586 22.3892 24.0319C21.179 25.3014 19.9569 26.7068 18.7532 28.0537C17.5648 29.3835 16.3892 30.6622 15.319 31.6102C14.7833 32.0847 14.2465 32.5015 13.7232 32.8041C13.2122 33.0996 12.6283 33.337 12.0189 33.337V31.337ZM24.6599 19.3256C25.2015 18.9583 25.8201 18.8819 26.4169 19.0811C26.9536 19.2603 27.408 19.6389 27.7856 20.0513C28.5441 20.8799 29.2894 22.1794 30.0189 23.7008C31.4913 26.7719 33.0751 31.1334 34.6677 35.5175C36.272 39.9339 37.8893 44.3849 39.449 47.7335C40.2307 49.4118 40.9738 50.7593 41.6647 51.6732C42.0099 52.1299 42.315 52.4416 42.5735 52.6319C42.8316 52.822 42.9847 52.849 43.051 52.849V54.849C42.4198 54.849 41.8583 54.589 41.3876 54.2424C40.9172 53.896 40.479 53.4213 40.0692 52.8793C39.2502 51.7957 38.4366 50.2966 37.636 48.578C36.0313 45.1327 34.382 40.5886 32.7879 36.2003C31.182 31.7796 29.6353 27.5269 28.2155 24.5655C27.4988 23.0708 26.8576 21.9995 26.3104 21.4018C26.0351 21.1011 25.8568 21.0026 25.7836 20.9782C25.7707 20.9739 25.8022 20.9674 25.7824 20.9808L24.6599 19.3256ZM43.051 52.849C43.1218 52.849 43.2732 52.8214 43.5231 52.6383C43.7747 52.454 44.0717 52.1507 44.4075 51.703C45.0798 50.8066 45.7993 49.4794 46.5554 47.8138C48.0638 44.4909 49.6218 40.041 51.1917 35.5302C52.7515 31.0482 54.3233 26.5048 55.8412 23.085C56.5983 21.3792 57.3655 19.8977 58.14 18.8283C58.5272 18.2935 58.9437 17.8229 59.3945 17.4783C59.8457 17.1335 60.3933 16.8687 61.017 16.8687V18.8687C60.9772 18.8687 60.8474 18.8851 60.6091 19.0673C60.3704 19.2498 60.085 19.5522 59.7598 20.0013C59.1094 20.8995 58.4092 22.229 57.6692 23.8963C56.1928 27.2228 54.6512 31.6745 53.0805 36.1876C51.52 40.6718 49.9305 45.2171 48.3765 48.6405C47.6014 50.348 46.811 51.8318 46.0074 52.9031C45.6053 53.4392 45.1728 53.9089 44.7051 54.2516C44.2357 54.5956 43.6778 54.849 43.051 54.849V52.849ZM61.017 16.8687C62.8711 16.8687 64.3684 18.3034 65.5412 19.8926C66.7602 21.5445 67.8799 23.7146 68.9069 25.804C69.9538 27.9338 70.8989 29.9668 71.8092 31.4912C72.2635 32.2519 72.6747 32.8255 73.0435 33.1983C73.4308 33.5897 73.6336 33.6215 73.6749 33.6215V35.6215C72.8315 35.6215 72.141 35.1297 71.6218 34.605C71.0842 34.0616 70.5756 33.3264 70.092 32.5166C69.1266 30.8998 68.1237 28.7446 67.112 26.6862C66.0804 24.5874 65.0309 22.5694 63.9319 21.0801C62.7866 19.5282 61.817 18.8687 61.017 18.8687V16.8687ZM73.6749 33.6215C73.8721 33.6215 74.1886 33.5363 74.6877 33.2765C75.1749 33.0229 75.7207 32.6666 76.3734 32.2381C77.6384 31.4075 79.2327 30.3499 81.0748 29.7556C82.9563 29.1486 85.1076 29.0183 87.4787 30.0129C89.8194 30.9947 92.2814 33.0337 94.8954 36.577L93.286 37.7643C90.7961 34.3893 88.5965 32.6505 86.7051 31.8572C84.8442 31.0766 83.193 31.1738 81.6889 31.659C80.1454 32.157 78.7708 33.0565 77.4711 33.9099C76.8414 34.3234 76.2059 34.7409 75.6112 35.0505C75.0283 35.3539 74.3623 35.6215 73.6749 35.6215V33.6215ZM94.8954 36.577C96.5604 38.8338 97.4387 41.9585 98.0878 44.5893C98.4225 45.9455 98.6906 47.1503 98.9786 48.1614C99.2776 49.2114 99.5411 49.8244 99.7698 50.0937C99.861 50.2011 99.8642 50.1543 99.7759 50.1435C99.6945 50.1335 99.7203 50.1778 99.903 50.054C100.311 49.7774 100.961 49.0345 101.906 47.4751C103.758 44.4177 106.438 38.758 110.455 29.2815L112.297 30.0621C108.284 39.5276 105.554 45.3141 103.616 48.5115C102.666 50.0795 101.827 51.1663 101.025 51.7095C100.603 51.9957 100.094 52.1975 99.5324 52.1286C98.9639 52.0588 98.5412 51.7367 98.2453 51.3883C97.6999 50.7461 97.3446 49.7259 97.055 48.7092C96.7544 47.6535 96.4643 46.358 96.1461 45.0684C95.4895 42.4075 94.6835 39.6586 93.286 37.7643L94.8954 36.577ZM110.421 29.3774C114.042 17.6232 117.818 10.6786 121.541 6.95835C123.416 5.08463 125.306 4.00067 127.178 3.56342C129.056 3.12502 130.837 3.3554 132.458 3.97993C135.651 5.21065 138.267 7.98785 140.042 10.3386C140.942 11.53 141.651 12.6467 142.136 13.466C142.379 13.8763 142.567 14.2134 142.694 14.4498C142.758 14.5681 142.807 14.6612 142.841 14.7259C142.858 14.7583 142.871 14.7835 142.88 14.8012C142.884 14.81 142.888 14.817 142.89 14.822C142.891 14.8245 142.892 14.8265 142.893 14.8281C142.893 14.8288 142.894 14.8296 142.894 14.83C142.894 14.8306 142.895 14.8312 142 15.2779C141.105 15.7246 141.105 15.7249 141.106 15.7251C141.105 15.725 141.106 15.725 141.105 15.7248C141.105 15.7243 141.105 15.7234 141.104 15.722C141.103 15.7192 141.1 15.7145 141.097 15.708C141.09 15.6948 141.08 15.6742 141.065 15.6466C141.037 15.5914 140.993 15.5082 140.935 15.4003C140.818 15.1844 140.644 14.8704 140.415 14.4851C139.958 13.7134 139.29 12.6618 138.446 11.5439C136.733 9.27612 134.398 6.87088 131.739 5.84614C130.433 5.34294 129.062 5.17733 127.633 5.51104C126.199 5.8459 124.627 6.70215 122.954 8.37308C119.583 11.7421 115.924 18.3046 112.332 29.9662L110.421 29.3774ZM143 15.2779V88H141V15.2779H143ZM142 89H-2V87H142V89ZM-3 88V1H-1V88H-3Z" fill="white"/>
<defs>
<linearGradient id="paint0_linear_2_1942" x1="140.759" y1="0.925636" x2="140.759" y2="86.4993" gradientUnits="userSpaceOnUse">
<stop stop-color="white" stop-opacity="0.28868"/>
<stop offset="1" stop-color="white" stop-opacity="0.01"/>
</linearGradient>
</defs>
</svg>
